{
  "accessors": [
    {
      "bufferView": 2,
      "componentType": 5126,
      "count": 5953,
      "max": [
        1.2448580265045166,
        2.608541965484619,
        4.296043872833252
      ],
      "min": [
        -1.0669679641723633,
        -2.491550922393799,
        0.035422999411821365
      ],
      "type": "VEC3"
    },
    {
      "bufferView": 2,
      "byteOffset": 71436,
      "componentType": 5126,
      "count": 5953,
      "max": [
        0.9994615316390991,
        0.9987596273422241,
        0.9985429048538208
      ],
      "min": [
        -0.9984238743782043,
        -0.999842643737793,
        -0.9999974966049194
      ],
      "type": "VEC3"
    },
    {
      "bufferView": 3,
      "componentType": 5126,
      "count": 5953,
      "max": [
        1.0,
        0.9999741315841675,
        0.9999939203262329,
        1.0
      ],
      "min": [
        -0.9839005470275879,
        -0.999992311000824,
        -0.9999910593032837,
        1.0
      ],
      "type": "VEC4"
    },
    {
      "bufferView": 1,
      "componentType": 5126,
      "count": 5953,
      "max": [
        0.9980080127716064,
        0.9838119745254517
      ],
      "min": [
        0.0019920000340789557,
        0.001964000053703785
      ],
      "type": "VEC2"
    },
    {
      "bufferView": 0,
      "componentType": 5125,
      "count": 29682,
      "type": "SCALAR"
    }
  ],
  "asset": {
    "extras": {
      "author": "hernandez bryan (https://sketchfab.com/exloseur)",
      "license": "CC-BY-4.0 (http://creativecommons.org/licenses/by/4.0/)",
      "source": "https://sketchfab.com/3d-models/snowy-ice-32156410551241f8bb5c57cccc8cd6ef",
      "title": "snowy ice"
    },
    "generator": "Sketchfab-12.65.0",
    "version": "2.0"
  },
  "bufferViews": [
    {
      "buffer": 0,
      "byteLength": 118728,
      "name": "floatBufferViews",
      "target": 34963
    },
    {
      "buffer": 0,
      "byteLength": 47624,
      "byteOffset": 118728,
      "byteStride": 8,
      "name": "floatBufferViews",
      "target": 34962
    },
    {
      "buffer": 0,
      "byteLength": 142872,
      "byteOffset": 166352,
      "byteStride": 12,
      "name": "floatBufferViews",
      "target": 34962
    },
    {
      "buffer": 0,
      "byteLength": 95248,
      "byteOffset": 309224,
      "byteStride": 16,
      "name": "floatBufferViews",
      "target": 34962
    }
  ],
  "buffers": [
    {
      "byteLength": 404472,
      "uri": "scene.bin"
    }
  ],
  "images": [
    {
      "uri": "textures/set2_baseColor.png"
    },
    {
      "uri": "textures/set2_metallicRoughness.png"
    },
    {
      "uri": "textures/set2_normal.png"
    }
  ],
  "materials": [
    {
      "doubleSided": true,
      "name": "set2",
      "normalTexture": {
        "index": 2
      },
      "pbrMetallicRoughness": {
        "baseColorTexture": {
          "index": 0
        },
        "metallicRoughnessTexture": {
          "index": 1
        }
      }
    }
  ],
  "meshes": [
    {
      "name": "Object_0",
      "primitives": [
        {
          "attributes": {
            "NORMAL": 1,
            "POSITION": 0,
            "TANGENT": 2,
            "TEXCOORD_0": 3
          },
          "indices": 4,
          "material": 0,
          "mode": 4
        }
      ]
    }
  ],
  "nodes": [
    {
      "children": [
        1
      ],
      "matrix": [
        1.0,
        0.0,
        0.0,
        0.0,
        0.0,
        2.220446049250313e-16,
        -1.0,
        0.0,
        0.0,
        1.0,
        2.220446049250313e-16,
        0.0,
        0.0,
        0.0,
        0.0,
        1.0
      ],
      "name": "Sketchfab_model"
    },
    {
      "children": [
        2
      ],
      "name": "rendu site.obj.cleaner.materialmerger.gles"
    },
    {
      "mesh": 0,
      "name": "Object_2"
    }
  ],
  "samplers": [
    {
      "magFilter": 9729,
      "minFilter": 9987,
      "wrapS": 10497,
      "wrapT": 10497
    }
  ],
  "scene": 0,
  "scenes": [
    {
      "name": "Sketchfab_Scene",
      "nodes": [
        0
      ]
    }
  ],
  "textures": [
    {
      "sampler": 0,
      "source": 0
    },
    {
      "sampler": 0,
      "source": 1
    },
    {
      "sampler": 0,
      "source": 2
    }
  ]
}
